<svg xmlns="http://www.w3.org/2000/svg" width="456" height="456" viewBox="0 0 456 456">
  <g id="Group_2982" data-name="Group 2982" transform="translate(-335 -191)">
    <g id="Group_2981" data-name="Group 2981">
      <g id="Ellipse_56" data-name="Ellipse 56" transform="translate(335 191)" fill="rgba(218,204,204,0.5)" stroke="rgba(0,0,0,0.49)" stroke-width="3">
        <circle cx="228" cy="228" r="228" stroke="none"/>
        <circle cx="228" cy="228" r="226.5" fill="none"/>
      </g>
      <g id="Group_345" data-name="Group 345" transform="translate(516.109 359)">
        <ellipse id="Ellipse_34" data-name="Ellipse 34" cx="21.238" cy="21.238" rx="21.238" ry="21.238" transform="translate(25.468 1)" fill="none" stroke="#fff" stroke-miterlimit="10" stroke-width="9"/>
        <rect id="Rectangle_113" data-name="Rectangle 113" width="94.057" height="54.983" rx="27.492" transform="translate(-0.109 63.572)" fill="none" stroke="#fff" stroke-miterlimit="10" stroke-width="9"/>
      </g>
    </g>
    <g id="Group_347" data-name="Group 347" transform="translate(17)">
      <g id="Ellipse_57" data-name="Ellipse 57" transform="translate(646 519)" fill="#5663ff" stroke="#fff" stroke-width="6">
        <circle cx="64" cy="64" r="64" stroke="none"/>
        <circle cx="64" cy="64" r="61" fill="none"/>
      </g>
      <path id="Path_428" data-name="Path 428" d="M71.794,36.874,52.119,17.2a4.634,4.634,0,0,0-6.623,0L25.82,36.874A4.683,4.683,0,1,0,32.443,43.5L44.19,31.75V65.641a4.659,4.659,0,0,0,9.317,0V31.75L65.253,43.5a4.654,4.654,0,1,0,6.541-6.622Z" transform="translate(660.715 539.589)" fill="#fff"/>
    </g>
  </g>
</svg>
