<svg xmlns="http://www.w3.org/2000/svg" width="654" height="359" viewBox="0 0 654 359">
  <g id="Group_347" data-name="Group 347" transform="translate(289.626 86.874)">
    <g id="Rectangle_446" data-name="Rectangle 446" transform="translate(-289.626 -86.874)" fill="#e4ede6" stroke="#707070" stroke-width="1">
      <rect width="654" height="359" rx="34" stroke="none"/>
      <rect x="0.5" y="0.5" width="653" height="358" rx="33.5" fill="none"/>
    </g>
    <g id="Ellipse_57" data-name="Ellipse 57" transform="translate(0.374 42.126)" fill="#248823" stroke="#fff" stroke-width="6">
      <circle cx="35.5" cy="35.5" r="35.5" stroke="none"/>
      <circle cx="35.5" cy="35.5" r="32.5" fill="none"/>
    </g>
    <path id="Path_428" data-name="Path 428" d="M50.776,27.526,39.831,16.581a2.578,2.578,0,0,0-3.684,0L25.2,27.526a2.605,2.605,0,1,0,3.684,3.684l6.535-6.535V43.527a2.591,2.591,0,0,0,5.183,0V24.675l6.534,6.534a2.589,2.589,0,1,0,3.639-3.684Z" transform="translate(-2.654 46.497)" fill="#fff"/>
  </g>
</svg>
