<svg xmlns="http://www.w3.org/2000/svg" xmlns:xlink="http://www.w3.org/1999/xlink" width="73" height="73" viewBox="0 0 73 73">
  <defs>
    <clipPath id="clip-path">
      <rect id="Rectangle_389" data-name="Rectangle 389" width="73" height="73" transform="translate(302.706 157.706)" fill="#fff" stroke="#707070" stroke-width="1"/>
    </clipPath>
  </defs>
  <g id="Mask_Group_1" data-name="Mask Group 1" transform="translate(-302.706 -157.706)" clip-path="url(#clip-path)">
    <g id="list" transform="translate(303.096 169.377)">
      <g id="Group_358" data-name="Group 358" transform="translate(13.561 1.782)">
        <g id="Group_357" data-name="Group 357">
          <path id="Path_451" data-name="Path 451" d="M57.708,6.716H12.587c-2.492,0-4.512,1.621-4.512,3.621s2.02,3.621,4.512,3.621H57.708c2.492,0,4.512-1.621,4.512-3.621S60.2,6.716,57.708,6.716Z" transform="translate(-8.075 -6.716)" fill="#fff"/>
        </g>
      </g>
      <g id="Group_360" data-name="Group 360" transform="translate(0.024 0.043)">
        <g id="Group_359" data-name="Group 359">
          <path id="Path_452" data-name="Path 452" d="M9.026,11.2a4.5,4.5,0,0,0-9,0,3.81,3.81,0,0,0,0,.875,4.038,4.038,0,0,0,.248.853,5.2,5.2,0,0,0,.428.763,4.108,4.108,0,0,0,.563.7,3.981,3.981,0,0,0,.675.539,3.67,3.67,0,0,0,.765.426,3.721,3.721,0,0,0,.945.337,3.957,3.957,0,0,0,.878,0,4.507,4.507,0,0,0,3.173-1.3,4.108,4.108,0,0,0,.563-.7,5.2,5.2,0,0,0,.428-.763,4.16,4.16,0,0,0,.338-.853A3.81,3.81,0,0,0,9.026,11.2Z" transform="translate(0 -6.728)" fill="#fff"/>
        </g>
      </g>
      <g id="Group_362" data-name="Group 362" transform="translate(0.025 20.323)">
        <g id="Group_361" data-name="Group 361">
          <path id="Path_453" data-name="Path 453" d="M9.039,23.31a3.857,3.857,0,0,0,0-.88A3.656,3.656,0,0,0,8.7,21.6a4.51,4.51,0,0,0-.429-.79,3.249,3.249,0,0,0-.564-.677A4.512,4.512,0,0,0,.015,23.31a4.5,4.5,0,0,0,.744,2.5,4.333,4.333,0,0,0,.587.677,3.294,3.294,0,0,0,.677.564,3.66,3.66,0,0,0,.767.429,3.837,3.837,0,0,0,.857.248,3.744,3.744,0,0,0,.88.09,3.841,3.841,0,0,0,.88,0,3.662,3.662,0,0,0,.835-.248,3.768,3.768,0,0,0,.79-.429,3.294,3.294,0,0,0,.677-.564,3.294,3.294,0,0,0,.564-.677,3.628,3.628,0,0,0,.429-.767,3.817,3.817,0,0,0,.338-.948A3.733,3.733,0,0,0,9.039,23.31Z" transform="translate(-0.015 -18.817)" fill="#fff"/>
        </g>
      </g>
      <g id="Group_364" data-name="Group 364" transform="translate(0.025 40.628)">
        <g id="Group_363" data-name="Group 363">
          <path id="Path_454" data-name="Path 454" d="M9.039,35.4a3.874,3.874,0,0,0,0-.88,3.841,3.841,0,0,0-.338-.857,5.237,5.237,0,0,0-.429-.767,3.294,3.294,0,0,0-.564-.677,4.512,4.512,0,0,0-6.362,0,3.294,3.294,0,0,0-.564.677,5.237,5.237,0,0,0-.429.767,3.7,3.7,0,0,0-.248.857,3.878,3.878,0,0,0-.09.88,4.513,4.513,0,0,0,1.331,3.181,3.294,3.294,0,0,0,.677.564,3.661,3.661,0,0,0,.767.429,3.837,3.837,0,0,0,.857.248,3.744,3.744,0,0,0,.88.09,3.841,3.841,0,0,0,.88,0,3.662,3.662,0,0,0,.835-.248,3.768,3.768,0,0,0,.79-.429,3.294,3.294,0,0,0,.677-.564,3.294,3.294,0,0,0,.564-.677,3.612,3.612,0,0,0,.429-.767,3.83,3.83,0,0,0,.338-.948A3.733,3.733,0,0,0,9.039,35.4Z" transform="translate(-0.015 -30.907)" fill="#fff"/>
        </g>
      </g>
      <g id="Group_366" data-name="Group 366" transform="translate(13.561 21.928)">
        <g id="Group_365" data-name="Group 365">
          <path id="Path_455" data-name="Path 455" d="M62.22,18.806H12.587c-2.492,0-4.512,1.657-4.512,3.7s2.02,3.7,4.512,3.7H62.22c2.492,0,4.512-1.657,4.512-3.7S64.712,18.806,62.22,18.806Z" transform="translate(-8.075 -18.806)" fill="#fff"/>
        </g>
      </g>
      <g id="Group_368" data-name="Group 368" transform="translate(13.561 42.073)">
        <g id="Group_367" data-name="Group 367">
          <path id="Path_456" data-name="Path 456" d="M41.915,30.9H12.587c-2.492,0-4.512,1.692-4.512,3.78s2.02,3.78,4.512,3.78H41.915c2.492,0,4.512-1.692,4.512-3.78S44.407,30.9,41.915,30.9Z" transform="translate(-8.075 -30.895)" fill="#fff"/>
        </g>
      </g>
    </g>
  </g>
</svg>
