<svg xmlns="http://www.w3.org/2000/svg" width="439.571" height="611.049" viewBox="0 0 439.571 611.049">
  <path id="Logo" d="M479.056,362.924c-9.877-50.369-30.8-102.19-62.057-154.19l-3.354-5.524-5.524,3.355a509.811,509.811,0,0,0-75.554,55.168,510.276,510.276,0,0,0-60.34-72.113L267.7,185l-4.619,4.619a532.467,532.467,0,0,0-61.877,73.651,513.9,513.9,0,0,0-77.278-56.705L118.4,203.21l-3.354,5.524c-31.255,52-52.18,103.82-62.057,154.19a341.039,341.039,0,0,0-6.156,87.241l-.18.359a.324.324,0,0,1,.18.093,307.733,307.733,0,0,0,8.7,56.26c11.5,45.564,33.6,88.6,65.584,127.827,31.621,38.682,73.112,73.744,123.208,104.273,3.714,14.4,9.331,40.945,5.617,57.072l16.033-3.987h.093l16.033,3.987c-.273-1.271-.359-2.629-.546-3.987-.087-.453-.18-.905-.266-1.451-1.724-16.127,3.168-38.682,6.429-51.634,50.1-30.529,91.587-65.591,123.208-104.273,31.98-39.228,54.083-82.263,65.584-127.827a307.74,307.74,0,0,0,8.7-56.26.324.324,0,0,1,.18-.093l-.18-.359A341.039,341.039,0,0,0,479.056,362.924ZM193.778,274.145a413.849,413.849,0,0,0-23.015,39.86,39,39,0,0,1-20.473-5.072l-20.745-83.621A479.889,479.889,0,0,1,193.778,274.145Zm-27.907,49.644a.451.451,0,0,1-.18.359c-2.629,5.711-4.978,11.414-7.334,17.125l-4.985-19.933A48.455,48.455,0,0,0,165.871,323.789ZM118.5,228.574l32.7,131.814A328.209,328.209,0,0,0,138.7,407.4l-.18.366.087.086q-2.037,11.551-3.261,23.1c-21.018,10.236-49.464,19.388-76.28,12.865C56.254,376.062,75.915,303.5,118.5,228.574ZM59.7,454.331c15.854,3.261,31.98,1.9,46.835-1.81a170.3,170.3,0,0,0,27.814-9.691q-.819,10.862-.819,21.737c.18,43.847,9.877,87.694,28.719,130.456-16.672,5.977-36.146,8.512-54.629-.273C79.542,551.357,63.415,504.162,59.7,454.331ZM117.226,608.7c12.958,3.081,25.91,2.177,37.87-.725a116.768,116.768,0,0,0,11.321-3.621v.093c17.3,36.506,41.491,72.2,71.84,106.622l2.629,10.509C188.434,688.155,147.123,650.285,117.226,608.7ZM260.361,752.834a134.382,134.382,0,0,1-3.987-14.948c.905-1.538,1.724-2.989,2.536-4.526.639.632,1.271,1.265,1.9,1.99C260.813,740.155,260.727,746.312,260.361,752.834Zm1.358-35.241c-1.9-1.9-3.621-3.893-5.431-5.884-2.722-3-5.524-5.983-8.246-8.972-5.8-6.616-11.414-13.225-16.759-19.84-21.924-27.361-39.587-55.261-53.085-83.434-1.451-3.081-2.809-6.25-4.26-9.331-1.724-3.894-3.534-7.88-5.072-11.867a73.017,73.017,0,0,0,16.213,5.89,89,89,0,0,0,15.221,2.263c1.81.086,3.621.18,5.438.18h1.631c2.8-.093,5.611-.18,8.333-.453,1.178-.093,2.263-.273,3.348-.359,3.354-.459,6.709-1,9.97-1.63a159.5,159.5,0,0,0,32.7-10.33Zm0-154.909a162.393,162.393,0,0,1-34.516,11.5c-3.441.639-6.975,1.178-10.689,1.544-.812.086-1.631.266-2.443.359A93.092,93.092,0,0,1,197.4,576c-12.047-1.171-24.093-5.072-34.423-13.584-14.4-41.764-19.481-83.98-15.581-126.11.453-4.166.905-8.333,1.537-12.5.366-3.082.725-6.163,1.271-9.238,2.715,1.265,5.524,2.356,8.333,3.348a105.434,105.434,0,0,0,20.02,4.892,128,128,0,0,0,17.577,1.271,158.062,158.062,0,0,0,28.446-2.629c5.617-.905,10.868-2.083,15.674-3.348,8.872-2.356,16.306-4.805,21.464-6.709Zm0-162.163a174.958,174.958,0,0,1-17.032,5.8c-4.892,1.358-10.416,2.809-16.393,3.987-15.581,3.261-34.336,5.071-52.366,1.9a90.653,90.653,0,0,1-12.679-3.354,73.765,73.765,0,0,1-11.148-4.619c1.451-6.8,3.082-13.5,4.985-20.293,1.9-7.068,4.166-14.13,6.616-21.1A353.164,353.164,0,0,1,180.64,322.7c2-3.987,4.166-8.067,6.343-12.14,4.985-9.151,10.329-18.3,16.213-27.361,2.449-3.714,4.892-7.521,7.521-11.235a515.931,515.931,0,0,1,51-62.33ZM402.5,225.313l-20.745,83.621a40.7,40.7,0,0,1-18.576,5.072A390.352,390.352,0,0,0,339.9,272.694,488.635,488.635,0,0,1,402.5,225.313ZM378.677,321.34l-4.346,17.3c-2-5.072-4.166-10.057-6.436-15.035A47.822,47.822,0,0,0,378.677,321.34ZM273.226,209.1a483.73,483.73,0,0,1,49.557,61.511c2.536,3.807,4.892,7.607,7.248,11.414,2.809,4.346,5.617,8.7,8.153,13.045a86.889,86.889,0,0,1-10.875,5.438,84.661,84.661,0,0,1-11.142,3.714,73.3,73.3,0,0,1-9.058,1.631,47.856,47.856,0,0,1-16.759-1.092,39.377,39.377,0,0,1-17.125-9.418Zm0,98.929a46.315,46.315,0,0,0,10.236,4.978,48.77,48.77,0,0,0,14.948,2.9,25.113,25.113,0,0,0,2.629.18,78.037,78.037,0,0,0,24.912-4.532,94.714,94.714,0,0,0,11.235-4.705c2.176-1.092,4.26-2.09,5.89-3,1.358,2.449,2.536,4.892,3.8,7.341,2,3.987,4.08,7.88,5.983,11.774a355.677,355.677,0,0,1,15.674,39.048c2.443,7.155,4.619,14.4,6.522,21.564a311.726,311.726,0,0,1,7.787,40.127c.546,4.08,1,8.246,1.358,12.413a297.077,297.077,0,0,1,1.271,36.965,213.261,213.261,0,0,1-35.062,9.784,161.034,161.034,0,0,1-29.531,2.988c-1.9-.093-3.807-.093-5.71-.18-2.715,0-5.431-.18-8.06-.366a.665.665,0,0,1-.093-.359,87.763,87.763,0,0,1-25.185-6.616c-2.9-1.358-5.8-2.809-8.606-4.439Zm-.359,441.365a109.947,109.947,0,0,1-.093-12.233c.546-.539,1-1.085,1.537-1.631.459.725.912,1.544,1.364,2.356C274.856,741.873,273.858,745.68,272.867,749.393Zm9.87-41.764c-1.9,2.176-3.8,4.26-5.8,6.343-1.265,1.358-2.443,2.809-3.714,4.167V485.406a98.464,98.464,0,0,0,34.882,9.963c1.81.18,3.714.273,5.524.366,2.715,0,5.438,0,8.246-.186v.459c4.619,0,9.145-.273,13.584-.639,4.166-.453,8.246-.905,12.233-1.631a204.748,204.748,0,0,0,37.231-9.69c-2.356,35.78-11.048,71.567-25.91,106.536-1.358,3.082-2.716,6.163-4.166,9.331-13.77,30.077-32.253,59.607-55.354,88.146C294.151,694.678,288.54,701.2,282.737,707.63Zm8.426,13.95,1.358-5.431c31.894-35.428,56.892-72.752,74.742-111.162,3.168,1.092,6.343,2.176,9.691,2.988,11.96,2.9,24.918,3.807,37.87.725C384.927,650.285,343.615,688.155,291.163,721.58ZM424.427,594.751c-17.85,8.519-36.779,6.436-53.092.905,18.3-42.755,27.907-86.789,28.087-131.088,0-7.155-.273-14.223-.725-21.378a161.008,161.008,0,0,0,26.815,9.331c14.855,3.714,30.982,5.071,46.835,1.81C468.634,504.162,452.507,551.357,424.427,594.751Zm48.559-150.929c-26.363,6.436-54.27-2.356-75.288-12.319a330.629,330.629,0,0,0-16.213-73.83l32.067-129.1C456.135,303.5,475.8,376.062,472.987,443.822Z" transform="translate(-46.239 -185)" fill="#fff"/>
</svg>
