<svg xmlns="http://www.w3.org/2000/svg" width="176.108" height="176.108" viewBox="0 0 176.108 176.108">
  <g id="Group_2962" data-name="Group 2962" transform="translate(-475)">
    <circle id="Ellipse_32" data-name="Ellipse 32" cx="88.054" cy="88.054" r="88.054" transform="translate(475)" fill="#25a032"/>
    <g id="address_1_" data-name="address (1)" transform="translate(528.064 53)">
      <path id="Path_449" data-name="Path 449" d="M15.217,55.075.323,73.841a1.489,1.489,0,0,0,1.166,2.415H74.766a1.489,1.489,0,0,0,1.166-2.415L61.039,55.075a1.489,1.489,0,0,0-1.166-.564H46.826l11.138-17.47a23.83,23.83,0,1,0-39.673,0L29.43,54.511H16.383a1.49,1.49,0,0,0-1.166.564Zm-5.561,11.8h9.005l-5.082,6.4H4.573ZM31.329,57.49l4.083,6.4H24.828l5.083-6.4Zm13.6,0h1.418l5.082,6.4H40.844Zm8.865,9.383,5.082,6.4H17.381l5.083-6.4Zm8.886,6.4-5.083-6.4H66.6l5.082,6.4Zm1.559-9.383H55.231l-5.083-6.4h9.006ZM20.778,35.4a20.851,20.851,0,1,1,34.7,0l-.017.026L38.128,62.613,20.795,35.427l-.017-.026Zm5.33,22.089-5.082,6.4H12.02l5.083-6.4Zm0,0" transform="translate(-3.192 -3.192)" fill="#fff"/>
      <path id="Path_450" data-name="Path 450" d="M34.975,35.5A13.647,13.647,0,1,0,21.328,21.85,13.648,13.648,0,0,0,34.975,35.5Zm0-24.564A10.918,10.918,0,1,1,24.057,21.85,10.93,10.93,0,0,1,34.975,10.932Zm0,0" transform="translate(-0.039 -0.015)" fill="#fff"/>
    </g>
  </g>
</svg>
