<svg xmlns="http://www.w3.org/2000/svg" width="58.796" height="67.942" viewBox="0 0 58.796 67.942">
  <g id="Group_227" data-name="Group 227" transform="translate(-849.209 -129.832)">
    <g id="Group_226" data-name="Group 226" transform="translate(849.459 130.082)">
      <path id="Path_77" data-name="Path 77" d="M907.755,175.346a6.735,6.735,0,0,1-6.737,6.726H856.2a6.727,6.727,0,1,1-.009-13.453s0-18.116,0-18.116a22.422,22.422,0,0,1,44.843,0v18.114A6.736,6.736,0,0,1,907.755,175.346Zm-8.136-2.242c-2.477,0-3.074-2-3.074-4.487V150.5c0-9.907,8.569,29.69-17.937,29.69s-17.937-39.6-17.937-29.69v18.114a4.487,4.487,0,0,1-4.482,4.487c-1.238,0-2.245,2.242-2.245,2.242l9.334-9.381h33.267l4.474,5.657s2.253,4.959,2.253,3.725S900.854,173.1,899.619,173.1Zm-31.1,12.332H873a5.606,5.606,0,0,0,11.211,0H888.7a10.09,10.09,0,0,1-20.18,0Z" transform="translate(-849.459 -128.082)" fill="#fff" stroke="#fff" stroke-miterlimit="10" stroke-width="0.5"/>
    </g>
  </g>
</svg>
